<svg xmlns="http://www.w3.org/2000/svg" viewBox="0 0 1080 936"><defs><style>.cls-1{fill:#ffd75d;}</style></defs><title>Recurso 1512</title><g id="Capa_2" data-name="Capa 2"><g id="svg3013"><g id="g3015"><path id="path3017" class="cls-1" d="M1008,558V90a18.24,18.24,0,0,0-18-18H90A18.24,18.24,0,0,0,72,90V558a18.24,18.24,0,0,0,18,18H990a18.24,18.24,0,0,0,18-18Zm72-468V702q0,37.13-26.44,63.56T990,792H684q0,20.81,9,43.59a414.07,414.07,0,0,0,18,39.94q9,17.16,9,24.47a36.51,36.51,0,0,1-36,36H396a36.51,36.51,0,0,1-36-36q0-7.87,9-24.75a400.59,400.59,0,0,0,18-39.37q9-22.5,9-43.88H90q-37.12,0-63.56-26.44T0,702V90Q0,52.88,26.44,26.44T90,0H990q37.13,0,63.56,26.44T1080,90Z"/></g></g></g></svg>