<svg xmlns="http://www.w3.org/2000/svg" viewBox="0 0 509.5 509.5" fill="#ffd75d" xmlns:v="https://vecta.io/nano"><path d="M316.4 0L172 61.8 19.8 9v447.4l157.7 53L335.2 444l154.6 21V19.2L316.4 0zm133.4 83.6l-82.5-18.2-39.7 17-71 6-18.7 15.6 3.8 4.4-.7 9.7-9.5-.5-1.2 17.4 64.3 47.1 16.9 52.1 23.5-25.3-5.6-12.5-7.4 4.9-5.8-15.2 39.8 22.2 7.5 37.5 21.9-38 6.2 17.4 13.5 15.1 3.2-25.7 5.9-3.4 14.3-18.1-11-32.8 4.5-4.9 14 16.3 1.2-3.6 8.1-51.9 4.6 3v200.4l-9.4-4.1-18.1-1.4-18.3-12.9 2.2-7.5-16.2-2.6-34.4 37.4 4.5 47 59.3 10.6.5 13.4 15.6 4.3 14.5-25.7v41.5l-119.9-16.2L176 466.8 59.8 427.7v-291l16.4-.4 3.4 31.2-11.2 30.4 31.4 59.3 11.6-23.4-12.3 7.8-2.7-21.1 22.8-11 2.6 12.4 1.2.3 31.9-51.9.2.2-3.3-13.4 21.9-10.3-20.2-28.5-7.5-19.7-86.2 7V65.2l113.8 39.4 148.9-63.7L449.8 55v28.6zM193.4 323.1L164.5 298l.8-15.3-31.2-22.5-18.1 8.1-30.2 45.5 42.5 35-.6 43.2 25.8 51.2 13.3-35.2-1.7-16.2zm97.1-99.8l-18.7 4.3-4.1-29.5-4.9-2.1-3.1 5.9-17.4-15.4-52.4 41.8.1 24.4 36.5 17.6.7-6.4 21.8 18.5-8.8 6.9 4.6 11.5v36.3l13.7 48.3 62-130.2-14.3.7zm-99.4 2.5l-.2 1.2.2-1.2z"/></svg>