<?xml version="1.0" encoding="utf-8"?>
<!-- Generator: Adobe Illustrator 26.3.1, SVG Export Plug-In . SVG Version: 6.00 Build 0)  -->
<svg version="1.1" id="Capa_1" xmlns="http://www.w3.org/2000/svg" xmlns:xlink="http://www.w3.org/1999/xlink" x="0px" y="0px"
	 viewBox="0 0 145 90" style="enable-background:new 0 0 145 90;" xml:space="preserve">
<style type="text/css">
	.st0{fill:#F3CD5A;}
</style>
<path class="st0" d="M0,72.9V62.4c9.6,0,17.4-7.8,17.4-17.4S9.6,27.6,0,27.6V17c15.4,0,28,12.5,28,28S15.4,72.9,0,72.9z"/>
<path class="st0" d="M0,55.8v-4.1c3.7,0,6.7-3,6.7-6.7s-3-6.7-6.7-6.7v-4.1c6,0,10.8,4.8,10.8,10.8S6,55.8,0,55.8z"/>
<g>
	<path class="st0" d="M145,17v10.6c-9.6,0-17.4,7.8-17.4,17.4s7.8,17.4,17.4,17.4V73c-15.4,0-27.9-12.5-27.9-27.9S129.6,17,145,17z"
		/>
	<path class="st0" d="M145,34.2v4.1c-3.7,0-6.7,3-6.7,6.7s3,6.7,6.7,6.7v4.1c-6,0-10.8-4.8-10.8-10.8S139,34.2,145,34.2z"/>
</g>
<g>
	<path class="st0" d="M72.5,45L28,80.3C38.3,72,45,59.3,45,45S38.3,18,28,9.7L72.5,45z"/>
</g>
<g>
	<path class="st0" d="M72.5,45l44.6,35.3C106.7,72,100,59.3,100,45s6.7-27,17.1-35.3L72.5,45z"/>
</g>
</svg>
