<svg version="1.1" id="Capa_1" xmlns="http://www.w3.org/2000/svg" x="0" y="0" viewBox="0 0 145 90" xml:space="preserve"><style>.st0{fill:#f3cd5a}</style><path class="st0" d="M0 72.9V62.4c9.6 0 17.4-7.8 17.4-17.4S9.6 27.6 0 27.6V17c15.4 0 28 12.5 28 28S15.4 72.9 0 72.9z"/><path class="st0" d="M0 55.8v-4.1c3.7 0 6.7-3 6.7-6.7s-3-6.7-6.7-6.7v-4.1c6 0 10.8 4.8 10.8 10.8S6 55.8 0 55.8z"/><path class="st0" d="M0 49.2v-1.6c1.4 0 2.6-1.2 2.6-2.6S1.4 42.4 0 42.4v-1.6c2.3 0 4.2 1.9 4.2 4.2S2.3 49.2 0 49.2z"/><path class="st0" d="M0 46.6V46c.6 0 1-.5 1-1s-.4-1-1-1v-.6c.9 0 1.6.7 1.6 1.6S.9 46.6 0 46.6z"/><path class="st0" d="M0 45.6v-.2c.2 0 .4-.2.4-.4s-.2-.4-.4-.4v-.2c.3 0 .6.3.6.6s-.3.6-.6.6z"/><path class="st0" d="M0 45.2v-.5c.1 0 .2.1.2.2s-.1.3-.2.3z"/><g><path class="st0" d="M145 17v10.6c-9.6 0-17.4 7.8-17.4 17.4s7.8 17.4 17.4 17.4V73c-15.4 0-27.9-12.5-27.9-27.9S129.6 17 145 17z"/><path class="st0" d="M145 34.2v4.1c-3.7 0-6.7 3-6.7 6.7s3 6.7 6.7 6.7v4.1c-6 0-10.8-4.8-10.8-10.8S139 34.2 145 34.2z"/><path class="st0" d="M145 40.8v1.6c-1.4 0-2.6 1.2-2.6 2.6s1.2 2.6 2.6 2.6v1.6c-2.3 0-4.2-1.9-4.2-4.2s1.9-4.2 4.2-4.2z"/><path class="st0" d="M145 43.4v.6c-.6 0-1 .5-1 1s.4 1 1 1v.6c-.9 0-1.6-.7-1.6-1.6s.7-1.6 1.6-1.6z"/><path class="st0" d="M145 44.4v.2c-.2 0-.4.2-.4.4s.2.4.4.4v.2c-.3 0-.6-.3-.6-.6s.3-.6.6-.6z"/><path class="st0" d="M145 44.8v.5c-.1 0-.2-.1-.2-.2s.1-.3.2-.3z"/></g><g><path class="st0" d="M72.5 45L28 80.3C38.3 72 45 59.3 45 45S38.3 18 28 9.7L72.5 45z"/></g><g><path class="st0" d="M72.5 45l44.6 35.3C106.7 72 100 59.3 100 45s6.7-27 17.1-35.3L72.5 45z"/></g></svg>