<?xml version="1.0" encoding="utf-8"?>
<!-- Generator: Adobe Illustrator 24.0.1, SVG Export Plug-In . SVG Version: 6.00 Build 0)  -->
<svg version="1.1" id="Capa_1" xmlns="http://www.w3.org/2000/svg" xmlns:xlink="http://www.w3.org/1999/xlink" x="0px" y="0px"
	 viewBox="0 0 145 90" style="enable-background:new 0 0 145 90;" xml:space="preserve">
<style type="text/css">
	.st0{fill:#F3CD5A;}
</style>
<g>
	<g>
		<g>
			<g>
				<path class="st0" d="M0,72.9V62.4c9.6,0,17.4-7.8,17.4-17.4S9.6,27.6,0,27.6V17c15.4,0,28,12.5,28,28S15.4,72.9,0,72.9z"/>
				<path class="st0" d="M0,55.8v-4.1c3.7,0,6.7-3,6.7-6.7s-3-6.7-6.7-6.7v-4.1c6,0,10.8,4.8,10.8,10.8S6,55.8,0,55.8z"/>
				<path class="st0" d="M0,49.2v-1.6c1.4,0,2.6-1.2,2.6-2.6S1.4,42.4,0,42.4v-1.6c2.3,0,4.2,1.9,4.2,4.2S2.3,49.2,0,49.2z"/>
				<path class="st0" d="M0,46.6V46c0.6,0,1-0.5,1-1s-0.4-1-1-1v-0.6c0.9,0,1.6,0.7,1.6,1.6S0.9,46.6,0,46.6z"/>
				<path class="st0" d="M0,45.6v-0.2c0.2,0,0.4-0.2,0.4-0.4S0.2,44.6,0,44.6v-0.2c0.3,0,0.6,0.3,0.6,0.6S0.3,45.6,0,45.6z"/>
				<path class="st0" d="M0,45.2v-0.5c0.1,0,0.2,0.1,0.2,0.2S0.1,45.2,0,45.2z"/>
			</g>
		</g>
	</g>
	<g>
		<g>
			<g>
				<path class="st0" d="M145,17v10.6c-9.6,0-17.4,7.8-17.4,17.4s7.8,17.4,17.4,17.4V73c-15.4,0-27.9-12.5-27.9-27.9
					S129.6,17,145,17z"/>
				<path class="st0" d="M145,34.2v4.1c-3.7,0-6.7,3-6.7,6.7s3,6.7,6.7,6.7v4.1c-6,0-10.8-4.8-10.8-10.8S139,34.2,145,34.2z"/>
				<path class="st0" d="M145,40.8v1.6c-1.4,0-2.6,1.2-2.6,2.6s1.2,2.6,2.6,2.6v1.6c-2.3,0-4.2-1.9-4.2-4.2S142.7,40.8,145,40.8z"/>
				<path class="st0" d="M145,43.4V44c-0.6,0-1,0.5-1,1s0.4,1,1,1v0.6c-0.9,0-1.6-0.7-1.6-1.6S144.1,43.4,145,43.4z"/>
				<path class="st0" d="M145,44.4v0.2c-0.2,0-0.4,0.2-0.4,0.4s0.2,0.4,0.4,0.4v0.2c-0.3,0-0.6-0.3-0.6-0.6S144.7,44.4,145,44.4z"/>
				<path class="st0" d="M145,44.8v0.5c-0.1,0-0.2-0.1-0.2-0.2S144.9,44.8,145,44.8z"/>
			</g>
		</g>
	</g>
	<g>
		<g>
			<path class="st0" d="M72.5,45L28,80.3C38.3,72,45,59.3,45,45S38.3,18,28,9.7L72.5,45z"/>
		</g>
	</g>
	<g>
		<g>
			<path class="st0" d="M72.5,45l44.6,35.3C106.7,72,100,59.3,100,45s6.7-27,17.1-35.3L72.5,45z"/>
		</g>
	</g>
</g>
</svg>
