<svg xmlns="http://www.w3.org/2000/svg" viewBox="0 0 1000 1000"><path d="M678 754c-54 37.8-117.1 56.8-181.7 55.9-8.5-.1-17-.6-25.4-1.3-3.4-.3-6.9-.9-10.3-1.3-6.6-.9-13.2-1.8-19.6-3-4-.8-7.8-1.8-11.7-2.7-6.3-1.5-12.6-3-18.7-4.8-3-.9-5.9-1.9-8.8-2.9-7.1-2.4-14.2-4.8-21-7.7-1.6-.6-3.1-1.4-4.6-2-8-3.5-16-7.3-23.6-11.4-.4-.2-.7-.3-1.1-.6-26-14.3-49.7-32.1-70.6-52.9-.3-.3-.7-.7-1-1.1-6.5-6.5-12.6-13.3-18.5-20.4-1.2-1.5-2.4-3.1-3.7-4.7-42.4-53.1-68-120.2-68-193.3h81.7l-130.7-196L10 499.9h81.7c0 85.9 26.8 165.6 72.3 231.4.6.9.9 1.9 1.6 2.8 4.7 6.7 10 13 15 19.3 1.9 2.4 3.7 4.9 5.6 7.2 7.5 9.1 15.4 17.5 23.5 25.9.8.8 1.5 1.6 2.3 2.4 27.3 27.3 58.2 50.3 91.8 68.8.9.5 1.8 1.1 2.7 1.6 9.7 5.2 19.6 9.9 29.7 14.3 2.5 1.1 5 2.3 7.5 3.4 8.6 3.6 17.5 6.7 26.4 9.7 4.2 1.4 8.4 2.9 12.7 4.2 7.8 2.3 15.8 4.3 23.8 6.1 5.3 1.2 10.6 2.6 16 3.6 2.3.5 4.4 1.2 6.6 1.5 7.6 1.4 15.2 2.1 22.8 3 2.7.3 5.4.8 8.2 1.1 13.6 1.3 27.2 2.2 40.8 2.2 83 0 164-25.4 233.5-74a49.15 49.15 0 0 0 12-68.3A49.26 49.26 0 0 0 678 754m230.4-254.1c0-85.7-26.7-165.1-72-230.9-.7-1.1-1.1-2.3-1.8-3.3-5.6-8-11.8-15.5-17.9-23-.7-.9-1.4-1.9-2.1-2.8a404.64 404.64 0 0 0-152.4-114.5c-1.6-.7-3.2-1.5-4.9-2.2-9.4-3.9-19-7.3-28.8-10.5-3.5-1.1-6.9-2.4-10.5-3.5a420 420 0 0 0-25.7-6.6c-4.8-1.1-9.5-2.3-14.4-3.3-2.4-.5-4.6-1.2-7-1.6-6.5-1.1-12.9-1.6-19.4-2.4-4.5-.6-8.8-1.3-13.4-1.7-10.9-1-21.6-1.5-32.4-1.7-1.9 0-3.9-.3-5.8-.3-.3 0-.7.1-1 .1-82.9.1-163.8 25.1-233.1 73.7-22.2 15.5-27.5 46-12 68.2s46.1 27.5 68.2 12a308.6 308.6 0 0 1 180.2-56c9.2.1 18.3.5 27.3 1.4 2.8.3 5.5.7 8.3 1 7.4.9 14.7 1.9 21.9 3.4 3.2.6 6.3 1.5 9.4 2.2 7.1 1.6 14.1 3.3 21 5.4 2.2.7 4.3 1.5 6.5 2.2 7.9 2.6 15.6 5.3 23.3 8.5.8.3 1.6.7 2.3 1 45.7 19.6 85.7 49.9 117 87.7.2.2.4.6.6.8 44 53.5 70.5 122 70.5 196.6h-81.7l130.7 196 130.7-196h-81.6v.1z" fill="#fff"/></svg>