<svg version="1.1" id="Capa_1" xmlns="http://www.w3.org/2000/svg" x="0" y="0" viewBox="0 0 143 180" xml:space="preserve"><style>.st0{fill:#ffe757}.st1{fill:#ffc269}</style><g id="XMLID_1_"><path class="st0" d="M140 120.8l-17.3 8.3-10.7-11c9.3.9 18.7 1.8 28 2.7z"/><path class="st1" d="M79.6 160.8c2.1-.1 5.2-.5 8.8-1.6 2.3-.8 8.2-2.8 12.8-7.8 3.5-3.8 4.7-7.8 7.1-15.8 1.3-4.3 2.7-10.2 3.6-17.5l10.8 11.1-1.4 33.1c0 4.9-3.4 8.5-7.5 8.6h-.1l-85.7-1 22.1-9.1h29.5zM24.6 44.4l-.7-27.9v-.1c0-3.1 1.7-5.7 3.6-5.7l83.2-.8c.9 0 1.8.9 2.3 2.1l-32.4 9H61.8c-22.4 0-28 41.2-28 41.2l-9.2-17.8z"/><path d="M28 169.9c-2.1 0-5-3.5-3.8-7.4C48.8 81.9 104 24.6 112.4 16.2c.8-.8 1.1-1.8.9-2.9-.1-.4-.2-.8-.4-1.2-.5-1.3-1.4-2.1-2.3-2.1l-83.2.8L8.1.8l121.6.1c10.6.1 9.8 11.7 5.8 17-2.1 2.8-42.2 55.7-58 84.8-1.2 2.2-3.8 7.2-9 17.1-8.4 16.1-11.6 22.4-14.9 30.9-1.6 4.2-2.8 7.7-3.5 9.9v.2L28 169.9z" fill="#ffcf64"/><path class="st0" d="M24.6 44.4l9.2 17.7H16z"/><path d="M112.5 16.2c-8.4 8.4-63.6 65.7-88.2 146.3-1.2 3.9 1.7 7.4 3.8 7.4l85.7.9h.1c4.1-.1 7.5-3.6 7.5-8.6l1.4-33.1 17.3-8.3c-.4 1.1-1 2.7-1.6 4.8-3 10-8.1 22.2-2.2 30.7.7 1 3.9 5 5.3 11.1.7 3.2 1.4 6.4-.5 8.8-2.2 2.7-5.6 2.8-6.1 2.8l-117.5-.5c-15.5-.3-17.9-.6-14.7-17.6C9.8 96.1 80.6 21 80.6 21l32.4-8.9c.2.4.3.8.4 1.2.2 1-.2 2.1-.9 2.9z" fill="#ffb600"/><path d="M27.5 10.7c-1.9 0-3.6 2.5-3.6 5.7v.1L1.3 11.8S8 8.7 8.1.8l19.4 9.9z" fill="#ce9e3e"/><path d="M23.9 16.5l.7 27.9L16 62.1C17.1 33 1.3 11.8 1.3 11.8l22.6 4.7z" fill="#efa94b"/></g><g id="XMLID_2_"><linearGradient id="SVGID_1_" gradientUnits="userSpaceOnUse" x1="68.7908" y1="94.7182" x2="46.9599" y2="81.6954"><stop offset=".5" stop-color="#9b0000"/><stop offset=".5" stop-color="#730000"/></linearGradient><path d="M51.4 99.1c-6-3.6-8-11.4-4.4-17.4 3.6-6 11.4-8 17.4-4.4 6 3.6 8 11.4 4.4 17.4-3.6 6.1-11.4 8-17.4 4.4z" fill="url(#SVGID_1_)"/></g></svg>