<?xml version="1.0" encoding="utf-8"?>
<!-- Generator: Adobe Illustrator 22.0.1, SVG Export Plug-In . SVG Version: 6.00 Build 0)  -->
<svg version="1.1" id="Capa_1" xmlns="http://www.w3.org/2000/svg" xmlns:xlink="http://www.w3.org/1999/xlink" x="0px" y="0px"
	 viewBox="0 0 143 180" style="enable-background:new 0 0 143 180;" xml:space="preserve">
<style type="text/css">
	.st0{fill:#FFE757;}
	.st1{fill:#FFC269;}
	.st2{fill:#FFCF64;}
	.st3{fill:#FFB600;}
	.st4{fill:#CE9E3E;}
	.st5{fill:#EFA94B;}
	.st6{fill:url(#SVGID_1_);}
</style>
<g id="XMLID_1_">
	<g>
		<path class="st0" d="M140,120.8l-17.3,8.3L112,118.1C121.3,119,130.7,119.9,140,120.8z"/>
		<path class="st1" d="M79.6,160.8c2.1-0.1,5.2-0.5,8.8-1.6c2.3-0.8,8.2-2.8,12.8-7.8c3.5-3.8,4.7-7.8,7.1-15.8
			c1.3-4.3,2.7-10.2,3.6-17.5l10.8,11.1l-1.4,33.1h0c0,4.9-3.4,8.5-7.5,8.6h-0.1L28,169.9l22.1-9.1h0.2L79.6,160.8z"/>
		<path class="st1" d="M24.6,44.4l-0.7-27.9v-0.1c0-3.1,1.7-5.7,3.6-5.7l83.2-0.8h0c0.9,0,1.8,0.9,2.3,2.1h0L80.6,21H61.8
			c-22.4,0-28,41.2-28,41.2L24.6,44.4z"/>
		<path class="st2" d="M28,169.9c-2.1,0-5-3.5-3.8-7.4c24.6-80.6,79.8-137.9,88.2-146.3c0.8-0.8,1.1-1.8,0.9-2.9
			c-0.1-0.4-0.2-0.8-0.4-1.2c-0.5-1.3-1.4-2.1-2.3-2.1h0l-83.2,0.8L8.1,0.8l121.6,0.1c10.6,0.1,9.8,11.7,5.8,17
			c-2.1,2.8-42.2,55.7-58,84.8c-1.2,2.2-3.8,7.2-9,17.1c-8.4,16.1-11.6,22.4-14.9,30.9c-1.6,4.2-2.8,7.7-3.5,9.9c0,0,0,0.1,0,0.1v0
			c0,0.1,0,0.1,0,0.1L28,169.9z"/>
		<polygon class="st0" points="24.6,44.4 33.8,62.1 16,62.1 		"/>
		<path class="st3" d="M112.5,16.2c-8.4,8.4-63.6,65.7-88.2,146.3c-1.2,3.9,1.7,7.4,3.8,7.4l85.7,0.9h0.1c4.1-0.1,7.5-3.6,7.5-8.6h0
			l1.4-33.1l17.3-8.3c-0.4,1.1-1,2.7-1.6,4.8c-3,10-8.1,22.2-2.2,30.7c0.7,1,3.9,5,5.3,11.1c0.7,3.2,1.4,6.4-0.5,8.8
			c-2.2,2.7-5.6,2.8-6.1,2.8l-117.5-0.5C2,178.2-0.4,177.9,2.8,160.9C9.8,96.1,80.6,21,80.6,21l32.4-8.9h0c0.2,0.4,0.3,0.8,0.4,1.2
			C113.6,14.3,113.2,15.4,112.5,16.2z"/>
		<path class="st4" d="M27.5,10.7c-1.9,0-3.6,2.5-3.6,5.7v0.1L1.3,11.8c0,0,6.7-3.1,6.8-11L27.5,10.7z"/>
		<path class="st5" d="M23.9,16.5l0.7,27.9L16,62.1C17.1,33,1.3,11.8,1.3,11.8L23.9,16.5z"/>
	</g>
	<g>
	</g>
</g>
<g>
	<g id="XMLID_2_">
		<g>
			<linearGradient id="SVGID_1_" gradientUnits="userSpaceOnUse" x1="68.7908" y1="94.7182" x2="46.9599" y2="81.6954">
				<stop  offset="0.5" style="stop-color:#9B0000"/>
				<stop  offset="0.5" style="stop-color:#730000"/>
			</linearGradient>
			<path class="st6" d="M51.4,99.1c-6-3.6-8-11.4-4.4-17.4c3.6-6,11.4-8,17.4-4.4c6,3.6,8,11.4,4.4,17.4
				C65.2,100.8,57.4,102.7,51.4,99.1z"/>
		</g>
		<g>
		</g>
	</g>
</g>
</svg>
