<svg xmlns="http://www.w3.org/2000/svg" viewBox="0 0 140.98 178"><g data-name="Capa 2"><path d="M140.25 166.5a28.61 28.61 0 00-5.25-11.09c-5.93-8.48-.83-20.65 2.17-30.66.6-2 1.17-3.65 1.58-4.75l-28.07-2.72a109.2 109.2 0 01-3.68 17.48c-2.38 8-3.64 12.07-7.11 15.82a30 30 0 01-12.84 7.77 34 34 0 01-8.74 1.65l-29.31.08h-.19v-.13a.17.17 0 010-.11c.72-2.23 1.89-5.71 3.5-9.89 3.3-8.56 6.47-14.87 14.86-30.94 5.19-9.93 7.78-14.89 9-17.13 15.82-29.13 55.89-82 58-84.79 4-5.31 4.79-16.88-5.83-17L6.83 0A12.71 12.71 0 010 11s15.83 21.25 14.75 50.33H32.5s5.56-41.21 28-41.17h18.83S8.5 95.33 1.5 160.08c-3.17 17-.81 17.37 14.66 17.44l117.51.48a8 8 0 006.08-2.75c1.91-2.38 1.19-5.54.5-8.75zM45.67 80.9a12.71 12.71 0 114.4 17.43 12.71 12.71 0 01-4.4-17.43z" fill="#fff" data-name="Capa 3"/></g></svg>